<mxfile host="app.diagrams.net" modified="2020-08-25T14:59:27.411Z" agent="5.0 (Windows NT 10.0; Win64; x64) AppleWebKit/537.36 (KHTML, like Gecko) Chrome/84.0.4147.135 Safari/537.36" etag="1OKzkLnIxoP-tkfa-3wp" version="13.6.5" type="github">
  <diagram name="Page-1" id="e7e014a7-5840-1c2e-5031-d8a46d1fe8dd">
    <mxGraphModel dx="982" dy="534" grid="1" gridSize="10" guides="1" tooltips="1" connect="1" arrows="1" fold="1" page="1" pageScale="1" pageWidth="827" pageHeight="1169" background="none" math="0" shadow="0">
      <root>
        <mxCell id="0" />
        <mxCell id="1" parent="0" />
        <mxCell id="f1nGOuJuLMEohCvLnJzI-44" style="edgeStyle=orthogonalEdgeStyle;rounded=0;orthogonalLoop=1;jettySize=auto;html=1;entryX=0;entryY=0.5;entryDx=0;entryDy=0;" edge="1" parent="1" source="f1nGOuJuLMEohCvLnJzI-41" target="f1nGOuJuLMEohCvLnJzI-43">
          <mxGeometry relative="1" as="geometry">
            <mxPoint x="140" y="270" as="targetPoint" />
          </mxGeometry>
        </mxCell>
        <mxCell id="f1nGOuJuLMEohCvLnJzI-41" value="Actor" style="shape=umlActor;verticalLabelPosition=bottom;verticalAlign=top;html=1;outlineConnect=0;" vertex="1" parent="1">
          <mxGeometry x="70" y="240" width="30" height="60" as="geometry" />
        </mxCell>
        <mxCell id="f1nGOuJuLMEohCvLnJzI-43" value="Insert a bill" style="ellipse;whiteSpace=wrap;html=1;" vertex="1" parent="1">
          <mxGeometry x="150" y="235" width="140" height="70" as="geometry" />
        </mxCell>
        <mxCell id="f1nGOuJuLMEohCvLnJzI-45" style="edgeStyle=orthogonalEdgeStyle;rounded=0;orthogonalLoop=1;jettySize=auto;html=1;exitX=1;exitY=0.5;exitDx=0;exitDy=0;entryX=1.014;entryY=0.414;entryDx=0;entryDy=0;entryPerimeter=0;" edge="1" parent="1" source="f1nGOuJuLMEohCvLnJzI-43" target="f1nGOuJuLMEohCvLnJzI-43">
          <mxGeometry relative="1" as="geometry" />
        </mxCell>
        <mxCell id="f1nGOuJuLMEohCvLnJzI-46" value="1 User insert bill in the billReader&lt;br&gt;2 BillReader scans the bill&lt;br&gt;3 Total amount displayed in the VM" style="text;html=1;align=center;verticalAlign=middle;resizable=0;points=[];autosize=1;" vertex="1" parent="1">
          <mxGeometry x="300" y="245" width="200" height="50" as="geometry" />
        </mxCell>
      </root>
    </mxGraphModel>
  </diagram>
</mxfile>
